<?xml version="1.0" encoding="UTF-8" standalone="no"?>
<!DOCTYPE svg PUBLIC "-//W3C//DTD SVG 1.1//EN"
 "http://www.w3.org/Graphics/SVG/1.1/DTD/svg11.dtd">
<!-- Generated by graphviz version 2.38.0 (20140413.2041)
 -->
<!-- Title: %3 Pages: 1 -->
<svg width="273pt" height="170pt"
 viewBox="0.00 0.00 273.12 170.43" xmlns="http://www.w3.org/2000/svg" xmlns:xlink="http://www.w3.org/1999/xlink">
<g id="graph0" class="graph" transform="scale(1 1) rotate(0) translate(4 166.426)">
<title>%3</title>
<polygon fill="white" stroke="none" points="-4,4 -4,-166.426 269.12,-166.426 269.12,4 -4,4"/>
<!-- T_in -->
<g id="node1" class="node"><title>T_in</title>
<ellipse fill="none" stroke="black" stroke-width="1.5" cx="38.8909" cy="-141.213" rx="38.7821" ry="21.4286"/>
<text text-anchor="middle" x="38.8909" y="-136.213" font-family="Times New Roman,serif" font-size="20.00">T_in</text>
</g>
<!-- T_out -->
<g id="node2" class="node"><title>T_out</title>
<ellipse fill="none" stroke="black" stroke-width="1.5" cx="218.451" cy="-111.213" rx="46.8387" ry="21.4286"/>
<text text-anchor="middle" x="218.451" y="-106.213" font-family="Times New Roman,serif" font-size="20.00">T_out</text>
</g>
<!-- T_in&#45;&gt;T_out -->
<g id="edge1" class="edge"><title>T_in&#45;&gt;T_out</title>
<path fill="none" stroke="black" stroke-width="1.5" d="M76.2512,-135.07C101.643,-130.78 135.948,-124.984 164.386,-120.179"/>
<polygon fill="black" stroke="black" stroke-width="1.5" points="165.293,-123.575 174.57,-118.458 164.127,-116.673 165.293,-123.575"/>
</g>
<!-- n_in -->
<g id="node3" class="node"><title>n_in</title>
<ellipse fill="none" stroke="black" stroke-width="1.5" cx="38.8909" cy="-21.2132" rx="37.4533" ry="21.4286"/>
<text text-anchor="middle" x="38.8909" y="-16.2132" font-family="Times New Roman,serif" font-size="20.00">n_in</text>
</g>
<!-- n_out -->
<g id="node4" class="node"><title>n_out</title>
<ellipse fill="none" stroke="black" stroke-width="1.5" cx="218.451" cy="-36.2132" rx="45.9239" ry="21.4286"/>
<text text-anchor="middle" x="218.451" y="-31.2132" font-family="Times New Roman,serif" font-size="20.00">n_out</text>
</g>
<!-- n_in&#45;&gt;n_out -->
<g id="edge2" class="edge"><title>n_in&#45;&gt;n_out</title>
<path fill="none" stroke="black" stroke-width="1.5" d="M76.2512,-24.2849C101.191,-26.3918 134.73,-29.2251 162.862,-31.6017"/>
<polygon fill="black" stroke="black" stroke-width="1.5" points="162.697,-35.1001 172.956,-32.4544 163.287,-28.1249 162.697,-35.1001"/>
</g>
<!-- i -->
<g id="node5" class="node"><title>i</title>
<ellipse fill="none" stroke="black" stroke-width="1.5" cx="38.8909" cy="-81.2132" rx="27" ry="21.4286"/>
<text text-anchor="middle" x="38.8909" y="-76.2132" font-family="Times New Roman,serif" font-size="20.00">i</text>
</g>
<!-- i&#45;&gt;T_out -->
<g id="edge4" class="edge"><title>i&#45;&gt;T_out</title>
<path fill="none" stroke="black" stroke-width="1.5" d="M65.3309,-85.5115C91.1409,-89.8723 131.854,-96.751 164.668,-102.295"/>
<polygon fill="black" stroke="black" stroke-width="1.5" points="164.129,-105.754 174.573,-103.969 165.296,-98.8515 164.129,-105.754"/>
</g>
<!-- i&#45;&gt;n_out -->
<g id="edge3" class="edge"><title>i&#45;&gt;n_out</title>
<path fill="none" stroke="black" stroke-width="1.5" d="M64.9543,-74.8612C91.5505,-68.1208 134.271,-57.2939 167.739,-48.8119"/>
<polygon fill="black" stroke="black" stroke-width="1.5" points="168.967,-52.1115 177.801,-46.262 167.247,-45.326 168.967,-52.1115"/>
</g>
</g>
</svg>
