<?xml version="1.0" encoding="UTF-8" standalone="no"?>
<!DOCTYPE svg PUBLIC "-//W3C//DTD SVG 1.1//EN"
 "http://www.w3.org/Graphics/SVG/1.1/DTD/svg11.dtd">
<!-- Generated by graphviz version 2.38.0 (20140413.2041)
 -->
<!-- Title: %3 Pages: 1 -->
<svg width="217pt" height="110pt"
 viewBox="0.00 0.00 216.81 110.43" xmlns="http://www.w3.org/2000/svg" xmlns:xlink="http://www.w3.org/1999/xlink">
<g id="graph0" class="graph" transform="scale(1 1) rotate(0) translate(4 106.426)">
<title>%3</title>
<polygon fill="white" stroke="none" points="-4,4 -4,-106.426 212.811,-106.426 212.811,4 -4,4"/>
<!-- i_1 -->
<g id="node1" class="node"><title>i_1</title>
<ellipse fill="none" stroke="black" stroke-width="1.5" cx="30.4056" cy="-81.2132" rx="30.3115" ry="21.4286"/>
<text text-anchor="middle" x="30.4056" y="-76.2132" font-family="Times New Roman,serif" font-size="20.00">i_1</text>
</g>
<!-- i -->
<g id="node2" class="node"><title>i</title>
<ellipse fill="none" stroke="black" stroke-width="1.5" cx="181.811" cy="-51.2132" rx="27" ry="21.4286"/>
<text text-anchor="middle" x="181.811" y="-46.2132" font-family="Times New Roman,serif" font-size="20.00">i</text>
</g>
<!-- i_1&#45;&gt;i -->
<g id="edge1" class="edge"><title>i_1&#45;&gt;i</title>
<path fill="none" stroke="black" stroke-width="1.5" d="M59.8593,-75.4998C84.2257,-70.6071 119.415,-63.5412 145.562,-58.2912"/>
<polygon fill="black" stroke="black" stroke-width="1.5" points="146.334,-61.706 155.449,-56.3057 144.956,-54.843 146.334,-61.706"/>
</g>
<!-- i_2 -->
<g id="node3" class="node"><title>i_2</title>
<ellipse fill="none" stroke="black" stroke-width="1.5" cx="30.4056" cy="-21.2132" rx="30.3115" ry="21.4286"/>
<text text-anchor="middle" x="30.4056" y="-16.2132" font-family="Times New Roman,serif" font-size="20.00">i_2</text>
</g>
<!-- i_2&#45;&gt;i -->
<g id="edge2" class="edge"><title>i_2&#45;&gt;i</title>
<path fill="none" stroke="black" stroke-width="1.5" d="M59.8593,-26.9266C84.2257,-31.8193 119.415,-38.8852 145.562,-44.1352"/>
<polygon fill="black" stroke="black" stroke-width="1.5" points="144.956,-47.5834 155.449,-46.1207 146.334,-40.7204 144.956,-47.5834"/>
</g>
</g>
</svg>
