<?xml version="1.0" encoding="UTF-8" standalone="no"?>
<!DOCTYPE svg PUBLIC "-//W3C//DTD SVG 1.1//EN"
 "http://www.w3.org/Graphics/SVG/1.1/DTD/svg11.dtd">
<!-- Generated by graphviz version 2.38.0 (20140413.2041)
 -->
<!-- Title: %3 Pages: 1 -->
<svg width="243pt" height="110pt"
 viewBox="0.00 0.00 243.42 110.43" xmlns="http://www.w3.org/2000/svg" xmlns:xlink="http://www.w3.org/1999/xlink">
<g id="graph0" class="graph" transform="scale(1 1) rotate(0) translate(4 106.426)">
<title>%3</title>
<polygon fill="white" stroke="none" points="-4,4 -4,-106.426 239.421,-106.426 239.421,4 -4,4"/>
<!-- z_11 -->
<g id="node1" class="node"><title>z_11</title>
<ellipse fill="none" stroke="black" stroke-width="1.5" cx="40.3051" cy="-81.2132" rx="40.1111" ry="21.4286"/>
<text text-anchor="middle" x="40.3051" y="-76.2132" font-family="Times New Roman,serif" font-size="20.00">z_11</text>
</g>
<!-- i_1 -->
<g id="node2" class="node"><title>i_1</title>
<ellipse fill="none" stroke="black" stroke-width="1.5" cx="205.016" cy="-51.2132" rx="30.3115" ry="21.4286"/>
<text text-anchor="middle" x="205.016" y="-46.2132" font-family="Times New Roman,serif" font-size="20.00">i_1</text>
</g>
<!-- z_11&#45;&gt;i_1 -->
<g id="edge1" class="edge"><title>z_11&#45;&gt;i_1</title>
<path fill="none" stroke="black" stroke-width="1.5" d="M78.6342,-74.3306C104.642,-69.5353 139.241,-63.1561 165.504,-58.3138"/>
<polygon fill="black" stroke="black" stroke-width="1.5" points="166.284,-61.7292 175.483,-56.4739 165.014,-54.8452 166.284,-61.7292"/>
</g>
<!-- z_12 -->
<g id="node3" class="node"><title>z_12</title>
<ellipse fill="none" stroke="black" stroke-width="1.5" cx="40.3051" cy="-21.2132" rx="40.1111" ry="21.4286"/>
<text text-anchor="middle" x="40.3051" y="-16.2132" font-family="Times New Roman,serif" font-size="20.00">z_12</text>
</g>
<!-- z_12&#45;&gt;i_1 -->
<g id="edge2" class="edge"><title>z_12&#45;&gt;i_1</title>
<path fill="none" stroke="black" stroke-width="1.5" d="M78.6342,-28.0958C104.642,-32.8911 139.241,-39.2703 165.504,-44.1126"/>
<polygon fill="black" stroke="black" stroke-width="1.5" points="165.014,-47.5812 175.483,-45.9525 166.284,-40.6972 165.014,-47.5812"/>
</g>
</g>
</svg>
